# xmcd
#
# Track frame offsets:
#	150
#	19535
#	34767
#	52336
#	71411
#	86274
#	103333
#	119921
#	138026
#	156163
#	178408
#	198204
#
# Disc length: 2847 seconds
# Revision: 0
# Processed by: cddbd v1.5.2PL0 Copyright (c) Steve Scherf et al.
# Submitted via: dBpowerAMP V12.0
#
DISCID=a80b1d0c
DTITLE=Shanna Waterstown - In side my blues
DYEAR=2008
DGENRE=Blues
TTITLE0=Sugar Daddy
TTITLE1=That's just the way it is
TTITLE2=Misery
TTITLE3=A Good man
TTITLE4=Bluesin
TTITLE5=Miracle
TTITLE6=I'm coming home
TTITLE7=Turn me on
TTITLE8=Watch what you say
TTITLE9=You let me down
TTITLE10=A real woman
TTITLE11=Hold my hand
EXTD=
EXTT0=
EXTT1=
EXTT2=
EXTT3=
EXTT4=
EXTT5=
EXTT6=
EXTT7=
EXTT8=
EXTT9=
EXTT10=
EXTT11=
PLAYORDER=
